<svg width="69" height="85" viewBox="0 0 69 85" fill="none" xmlns="http://www.w3.org/2000/svg">
<path d="M67.9596 36.326L67.9545 36.3612L67.9518 36.3967C67.7607 38.9583 66.9497 41.3251 65.6184 43.3647C63.1894 47.0292 59.1943 49.6342 54.4782 50.2084H53.3159H51.6788L52.4261 51.6649L52.4401 51.6921L58.1038 69.2279C57.0067 68.745 55.8783 68.1002 54.7577 67.3117C50.1679 64.0763 45.4995 58.3618 41.6361 51.0138L41.6361 50.258H40.6362H34.3218H32.6847L33.432 51.7145L33.4459 51.7415L43.6431 83.3703C42.546 82.8875 41.4175 82.2428 40.2968 81.4543C33.4067 76.5619 26.4289 66.2178 22.1905 53.0973C22.0885 52.7498 21.9867 52.4152 21.8866 52.0857L21.8859 52.0836C21.7896 51.7668 21.6947 51.4548 21.6001 51.1333C21.5551 50.921 21.4582 50.7752 21.4235 50.7244C21.389 50.6739 21.356 50.6339 21.3315 50.6061C21.3188 50.5917 21.3072 50.5791 21.2971 50.5686L21.2828 50.554L21.2765 50.5476L21.2735 50.5446L21.272 50.5432L21.2713 50.5425L21.271 50.5422C21.2708 50.542 21.2706 50.5418 20.5727 51.258L21.2706 50.5418L20.9794 50.258H20.5727C20.1812 50.258 19.8334 50.3075 19.5312 50.3506C19.4922 50.3561 19.4539 50.3616 19.4164 50.3668L19.4051 50.3684L19.3939 50.3702C19.0118 50.4323 18.6437 50.5519 18.3564 50.6453L18.3287 50.6543L18.2988 50.664L18.2696 50.6756C14.6525 52.1075 12.0871 55.5868 12.0871 59.6439C12.0871 62.7825 13.6108 65.5557 15.967 67.3205C7.60196 67.075 1 60.448 1 52.3993C1 52.0402 1.00174 51.7657 1.04035 51.5023L1.04551 51.4672L1.04815 51.4317C1.23934 48.8701 2.05032 46.5032 3.38164 44.4637C5.81057 40.7992 9.80567 38.1942 14.5217 37.62H17.8229H18.8229V36.62V36.6197V36.6194V36.6191V36.6188V36.6185V36.6182V36.6179V36.6176V36.6174V36.6171V36.6168V36.6165V36.6162V36.6159V36.6156V36.6153V36.615V36.6147V36.6144V36.6142V36.6139V36.6136V36.6133V36.613V36.6127V36.6124V36.6121V36.6118V36.6115V36.6113V36.611V36.6107V36.6104V36.6101V36.6098V36.6095V36.6092V36.6089V36.6087V36.6084V36.6081V36.6078V36.6075V36.6072V36.6069V36.6066V36.6063V36.6061V36.6058V36.6055V36.6052V36.6049V36.6046V36.6043V36.604V36.6038V36.6035V36.6032V36.6029V36.6026V36.6023V36.602V36.6017V36.6015V36.6012V36.6009V36.6006V36.6003V36.6V36.5997V36.5995V36.5992V36.5989V36.5986V36.5983V36.598V36.5977V36.5975V36.5972V36.5969V36.5966V36.5963V36.596V36.5958V36.5955V36.5952V36.5949V36.5946V36.5944V36.5941V36.5938V36.5935V36.5932V36.5929V36.5927V36.5924V36.5921V36.5918V36.5915V36.5913V36.591V36.5907V36.5904V36.5901V36.5899V36.5896V36.5893V36.589V36.5888V36.5885V36.5882V36.5879V36.5876V36.5874V36.5871V36.5868V36.5865V36.5863V36.586V36.5857V36.5854V36.5852V36.5849V36.5846V36.5843V36.5841V36.5838V36.5835V36.5833V36.583V36.5827V36.5824V36.5822V36.5819V36.5816V36.5814V36.5811V36.5808V36.5805V36.5803V36.58V36.5797V36.5795V36.5792V36.5789V36.5787V36.5784V36.5781V36.5779V36.5776V36.5773V36.5771V36.5768V36.5765V36.5763V36.576V36.5758V36.5755V36.5752V36.575V36.5747V36.5744V36.5742V36.5739V36.5737V36.5734V36.5731V36.5729V36.5726V36.5724V36.5721V36.5718V36.5716V36.5713V36.5711V36.5708V36.5706V36.5703V36.57V36.5698V36.5695V36.5693V36.569V36.5688V36.5685V36.5683V36.568V36.5678V36.5675V36.5673V36.567V36.5668V36.5665V36.5663V36.566V36.5658V36.5655V36.5653V36.565V36.5648V36.5645V36.5643V36.564V36.5638V36.5635V36.5633V36.5631V36.5628V36.5626V36.5623V36.5621V36.5619V36.5616V36.5614V36.5611V36.5609V36.5607V36.5604V36.5602V36.5599V36.5597V36.5595V36.5592V36.559V36.5588V36.5585V36.5583V36.5581V36.5578V36.5576V36.5574V36.5571V36.5569V36.5567V36.5564V36.5562V36.556V36.5558V36.5555V36.5553V36.5551V36.5548V36.5546V36.5544V36.5542V36.5539V36.5537V36.5535V36.5533V36.5531V36.5528V36.5526V36.5524V36.5522V36.552V36.5517V36.5515V36.5513V36.5511V36.5509V36.5507V36.5504V36.5502V36.55V36.5498V36.5496V36.5494V36.5492V36.549V36.5487V36.5485V36.5483V36.5481V36.5479V36.5477V36.5475V36.5473V36.5471V36.5469V36.5467V36.5465V36.5463V36.5461V36.5459V36.5457V36.5455V36.5453V36.5451V36.5449V36.5447V36.5445V36.5443V36.5441V36.5439V36.5437V36.5435V36.5433V36.5431V36.5429V36.5427V36.5425V36.5423V36.5422V36.542V36.5418V36.5416V36.5414V36.5412V36.541V36.5409V36.5407V36.5405V36.5403V36.5401V36.5399V36.5398V36.5396V36.5394V36.5392V36.539V36.5389V36.5387V36.5385V36.5383V36.5382V36.538V36.5378V36.5377V36.5375V36.5373V36.5371V36.537V36.5368V36.5366V36.5365V36.5363V36.5361V36.536V36.5358V36.5356V36.5355V36.5353V36.5352V36.535V36.5348V36.5347V36.5345V36.5344V36.5342V36.5341V36.5339V36.5338V36.5336V36.5334V36.5333V36.5331V36.533V36.5328V36.5327V36.5326V36.5324V36.5323V36.5321V36.532V36.5318V36.5317V36.5315V36.5314V36.5313V36.5311V36.531V36.5308V36.5307V36.5306V36.5304V36.5303V36.5302V36.53V36.5299V36.5298V36.5296V36.5295V36.5294V36.5293V36.5291V36.529V36.5289V36.5288V36.5286V36.5285V36.5284V36.5283V36.5281V36.528V36.5279V36.5278V36.5277V36.5276V36.5274V36.5273V36.5272V36.5271V36.527V36.5269V36.5268V36.5267V36.5266V36.5265V36.5263V36.5262V36.5261V36.526V36.5259V36.5258V36.5257V36.5256V36.5255V36.5254V36.5253V36.5252V36.5252V36.5251V36.525V36.5249V36.5248V36.5247V36.5246V36.5245V36.5244V36.5243V36.5243V36.5242V36.5241V36.524V36.5239V36.5238V36.5238V36.5237V36.5236V36.5235V36.5235V36.5234V36.5233V36.5232V36.5232V36.5231V36.523V36.523V36.5229V36.5228V36.5228V36.5227V36.5226V36.5226V36.5225V36.5224V36.5224V36.5223V36.5223V36.5222V36.5222V36.5221V36.522V36.522V36.5219V36.5219V36.5218V36.5218V36.5217V36.5217V36.5217V36.5216V36.5216V36.5215V36.5215V36.5214V36.5214V36.5214V36.5213V36.5213V36.5213V36.5212V36.5212V36.5212V36.5211V36.5211V36.521V36.521V36.5209V36.5209V36.5209V36.5208V36.5208V36.5207V36.4787L18.8193 36.4368C18.2677 29.8887 18.8758 24.0855 20.3939 19.7387C20.8622 18.4623 21.405 17.3162 22.0184 16.3073L28.6342 36.8276L28.6592 36.905L28.6963 36.9773L28.7472 37.0765L29.0261 37.62H29.6369H34.9328H35.9328V36.62L35.9328 36.6185C35.9329 36.6087 35.933 36.5638 35.9297 36.5152C35.9263 36.4657 35.9165 36.3562 35.8726 36.228C35.8535 36.1721 35.8252 36.1051 35.7837 36.0343C32.4137 24.0277 32.3174 12.8839 34.8556 5.64717C35.3239 4.37076 35.8666 3.22459 36.48 2.21569L47.6282 36.8273L47.6532 36.9048L47.6904 36.9772L47.7413 37.0765L48.0201 37.62H48.631C48.9838 37.62 49.3206 37.5541 49.5568 37.508L49.572 37.505C49.9481 37.4422 50.3096 37.3247 50.5927 37.2327L50.6204 37.2237L50.6503 37.214L50.6795 37.2024C54.2966 35.7705 56.862 32.2912 56.862 28.2341C56.862 25.0938 55.3366 22.3193 52.9783 20.5547C61.394 20.7499 68 27.3778 68 35.4291C68 35.7882 67.9983 36.0627 67.9596 36.326Z" stroke="black" stroke-width="2"/>
</svg>
